<?xml version="1.0" encoding="utf-8"?>
<!-- Generator: Adobe Illustrator 24.0.1, SVG Export Plug-In . SVG Version: 6.00 Build 0)  -->
<!DOCTYPE svg PUBLIC "-//W3C//DTD SVG 1.1//EN" "http://www.w3.org/Graphics/SVG/1.1/DTD/svg11.dtd" [
	<!ENTITY ns_extend "http://ns.adobe.com/Extensibility/1.0/">
	<!ENTITY ns_ai "http://ns.adobe.com/AdobeIllustrator/10.0/">
	<!ENTITY ns_graphs "http://ns.adobe.com/Graphs/1.0/">
	<!ENTITY ns_vars "http://ns.adobe.com/Variables/1.0/">
	<!ENTITY ns_imrep "http://ns.adobe.com/ImageReplacement/1.0/">
	<!ENTITY ns_sfw "http://ns.adobe.com/SaveForWeb/1.0/">
	<!ENTITY ns_custom "http://ns.adobe.com/GenericCustomNamespace/1.0/">
	<!ENTITY ns_adobe_xpath "http://ns.adobe.com/XPath/1.0/">
]>
<svg version="1.1" id="Calque_1" xmlns:x="&ns_extend;" xmlns:i="&ns_ai;" xmlns:graph="&ns_graphs;"
	 xmlns="http://www.w3.org/2000/svg" xmlns:xlink="http://www.w3.org/1999/xlink" x="0px" y="0px" viewBox="0 0 101 59"
	 style="enable-background:new 0 0 101 59;" xml:space="preserve">
<style type="text/css">
	.st0{fill-rule:evenodd;clip-rule:evenodd;fill:#FFFFFE;}
	.st1{display:none;fill:none;stroke:#1A1919;}
	.st2{fill-rule:evenodd;clip-rule:evenodd;fill:#6D6D6C;}
	.st3{fill-rule:evenodd;clip-rule:evenodd;fill:#E3672A;}
	.st4{fill:none;stroke:#E3672A;}
	.st5{fill:none;stroke:#FFFFFE;stroke-width:0.2;}
	.st6{fill:none;stroke:#1A1919;stroke-width:1.4;}
	.st7{fill-rule:evenodd;clip-rule:evenodd;fill:#1A1919;}
	.st8{fill:none;stroke:#1A1919;stroke-width:1.003;}
	.st9{fill-rule:evenodd;clip-rule:evenodd;fill:#6F8F9D;}
</style>
<metadata>
	<sfw  xmlns="&ns_sfw;">
		<slices></slices>
		<sliceSourceBounds  bottomLeftOrigin="true" height="58" width="99.7" x="0.7" y="0.2"></sliceSourceBounds>
	</sfw>
</metadata>
<desc>Created with Sketch.</desc>
<g id="Symbols">
	<g id="Header" transform="translate(-878.000000, 2.000000)">
		<g id="SGS_ISO_9001_UKAS_2014_TPL" transform="translate(0.000000, -1.000000)">
			<g transform="translate(879.000000, 0.000000)">
				<polygon id="Fill-1" class="st0" points="0.2,57.3 98.9,57.3 98.9,0.3 0.2,0.3 				"/>
				<polygon id="Stroke-2" class="st1" points="0.2,57.3 98.9,57.3 98.9,0.3 0.2,0.3 				"/>
				<path id="Fill-4" class="st2" d="M50.7,39.4V27.9c0-12.7-10.3-23-23-23c-12.7,0-23,10.3-23,23c0,0,4.6,0,4.6,0
					c0-10.2,8.2-18.4,18.4-18.4c10.2,0,18.4,8.2,18.4,18.4v11.5H50.7"/>
				<path id="Fill-5" class="st3" d="M27.7,33.7l-3.9-3.9l0-5.9l3.9,3.9l8.9-8.9c-2.3-2.3-5.4-3.7-8.9-3.7c-7,0-12.6,5.7-12.6,12.6
					c0,7,5.7,12.6,12.6,12.6c7,0,12.6-5.7,12.6-12.6c0-2-0.4-3.8-1.2-5.4L27.7,33.7"/>
				<path id="Fill-6" class="st2" d="M35.4,50.7c-1.1-0.4-1.4-1.3-1.3-2.4h1.7c0,0.8,0,1.4,0.9,1.4c0.6,0,0.8-0.4,0.8-0.9
					c0-1.4-3.3-1.5-3.3-3.9c0-1.2,0.6-2.2,2.6-2.2c1.6,0,2.4,0.7,2.3,2.4h-1.6c0-0.6-0.1-1.2-0.8-1.2c-0.5,0-0.9,0.3-0.9,0.8
					c0,1.5,3.3,1.4,3.3,3.9c0,1.4-0.7,1.9-1.5,2.2H35.4"/>
				<path id="Fill-7" class="st2" d="M43.2,45.2c0-0.7-0.1-1.4-1-1.4c-1,0-1,1.4-1,2.9c0,2.5,0.2,2.9,1.2,2.9c0.3,0,0.6-0.1,0.8-0.2
					v-1.8h-0.9v-1.2h2.6v4c-0.2,0-0.5,0.1-0.8,0.1h-2.8c-1.5-0.4-1.7-1.6-1.7-4c0-2,0.1-4,2.8-4c1.6,0,2.6,0.9,2.5,2.6H43.2"/>
				<path id="Fill-8" class="st2" d="M48,42.7c1.5,0,2.2,0.6,2.4,1.8V45h-1.6c0-0.6-0.1-1.2-0.8-1.2c-0.5,0-0.9,0.3-0.9,0.8
					c0,1.4,2.9,1.4,3.3,3.3v1.1c-0.2,0.9-0.8,1.3-1.4,1.5h-2.3c-1.2-0.4-1.4-1.3-1.3-2.4H47c0,0.8,0,1.4,0.9,1.4
					c0.6,0,0.8-0.4,0.8-0.9c0-1.4-3.3-1.5-3.3-3.9C45.4,43.7,46,42.7,48,42.7"/>
				<polygon id="Fill-9" class="st3" points="29.1,51.2 53.6,51.2 53.6,50.7 29.1,50.7 				"/>
				<polygon id="Fill-10" class="st3" points="50.4,52.7 50.9,52.7 50.9,41.2 50.4,41.2 				"/>
				<polyline id="Fill-11" class="st3" points="5,30.5 5,30 8.5,29.6 8.5,30.1 5,30.5 				"/>
				<polygon id="Stroke-12" class="st4" points="5,30.5 5,30 8.5,29.6 8.5,30.1 				"/>
				<path id="Fill-13" class="st3" d="M6.3,31.6l-0.1,0c-0.5,0.1-0.6,0.4-0.5,0.7c0.1,0.3,0.3,0.6,0.7,0.5c0.8-0.2,0.4-1.7,1.4-1.9
					c0.6-0.1,1,0.2,1.1,0.8c0.1,0.6-0.1,1-0.8,1.2L8,32.5c0.4-0.1,0.6-0.2,0.5-0.7c-0.1-0.3-0.2-0.5-0.6-0.4
					c-0.8,0.2-0.3,1.7-1.4,1.9c-0.7,0.1-1.1-0.3-1.2-0.9c-0.2-1,0.6-1.2,0.9-1.2L6.3,31.6"/>
				<path id="Stroke-14" class="st4" d="M6.3,31.6l-0.1,0c-0.5,0.1-0.6,0.4-0.5,0.7c0.1,0.3,0.3,0.6,0.7,0.5
					c0.8-0.2,0.4-1.7,1.4-1.9c0.6-0.1,1,0.2,1.1,0.8c0.1,0.6-0.1,1-0.8,1.2L8,32.5c0.4-0.1,0.6-0.2,0.5-0.7
					c-0.1-0.3-0.2-0.5-0.6-0.4c-0.8,0.2-0.3,1.7-1.4,1.9c-0.7,0.1-1.1-0.3-1.2-0.9c-0.2-1,0.6-1.2,0.9-1.2L6.3,31.6z"/>
				<path id="Fill-15" class="st3" d="M7.6,35.7l1.1-0.4c0.7-0.2,0.5-0.7,0.5-0.9c0-0.1-0.2-0.6-0.9-0.4l-1.1,0.4
					c-0.7,0.3-0.8,0.5-0.7,0.9C6.7,35.8,6.9,36,7.6,35.7z M7.1,34.1l1.1-0.4c0.7-0.2,1.2,0,1.5,0.7c0.3,0.7,0,1.2-0.7,1.4l-1.1,0.4
					c-0.9,0.3-1.4,0.1-1.7-0.6C5.9,34.9,6.2,34.4,7.1,34.1z"/>
				<path id="Stroke-16" class="st4" d="M7.6,35.7l1.1-0.4c0.7-0.2,0.5-0.7,0.5-0.9c0-0.1-0.2-0.6-0.9-0.4l-1.1,0.4
					c-0.7,0.3-0.8,0.5-0.7,0.9C6.7,35.8,6.9,36,7.6,35.7z M7.1,34.1l1.1-0.4c0.7-0.2,1.2,0,1.5,0.7c0.3,0.7,0,1.2-0.7,1.4l-1.1,0.4
					c-0.9,0.3-1.4,0.1-1.7-0.6C5.9,34.9,6.2,34.4,7.1,34.1z"/>
				<path id="Fill-17" class="st3" d="M9.7,37.5c-0.3,0.2-0.6,0.4-0.4,0.7c0.2,0.3,0.5,0.2,0.8,0c0.3-0.2,0.6-0.4,0.4-0.7
					C10.4,37.2,10,37.4,9.7,37.5z M9.8,39.1c-0.8,0.4-1.5,0.9-2,0.1c-0.3-0.4-0.1-0.9,0.4-1.2l0.2,0.4C8.2,38.5,8,38.7,8.1,39
					c0.2,0.4,0.6,0.2,1.4-0.3l0,0c-0.3,0-0.4-0.1-0.6-0.3c-0.1-0.2-0.3-0.7,0.5-1.2c0.7-0.4,1.1-0.1,1.3,0.3
					C11.3,38.2,10.6,38.6,9.8,39.1z"/>
				<path id="Stroke-18" class="st4" d="M9.7,37.5c-0.3,0.2-0.6,0.4-0.4,0.7c0.2,0.3,0.5,0.2,0.8,0c0.3-0.2,0.6-0.4,0.4-0.7
					C10.4,37.2,10,37.4,9.7,37.5z M9.8,39.1c-0.8,0.4-1.5,0.9-2,0.1c-0.3-0.4-0.1-0.9,0.4-1.2l0.2,0.4C8.2,38.5,8,38.7,8.1,39
					c0.2,0.4,0.6,0.2,1.4-0.3l0,0c-0.3,0-0.4-0.1-0.6-0.3c-0.1-0.2-0.3-0.7,0.5-1.2c0.7-0.4,1.1-0.1,1.3,0.3
					C11.3,38.2,10.6,38.6,9.8,39.1z"/>
				<path id="Fill-19" class="st3" d="M10.4,40.1c-0.5,0.3-1.1,0.7-0.8,1.1c0.3,0.4,0.9-0.1,1.3-0.4c0.7-0.5,1.2-0.9,0.9-1.2
					C11.6,39.3,11.1,39.6,10.4,40.1z M11.3,41.2c-0.7,0.5-1.4,1-1.9,0.3c-0.5-0.7,0.2-1.2,0.9-1.8c0.7-0.5,1.4-1.1,2-0.3
					C12.7,40.2,12,40.6,11.3,41.2z"/>
				<path id="Stroke-20" class="st4" d="M10.4,40.1c-0.5,0.3-1.1,0.7-0.8,1.1c0.3,0.4,0.9-0.1,1.3-0.4c0.7-0.5,1.2-0.9,0.9-1.2
					C11.6,39.3,11.1,39.6,10.4,40.1z M11.3,41.2c-0.7,0.5-1.4,1-1.9,0.3c-0.5-0.7,0.2-1.2,0.9-1.8c0.7-0.5,1.4-1.1,2-0.3
					C12.7,40.2,12,40.6,11.3,41.2z"/>
				<path id="Fill-21" class="st3" d="M12.1,42.2c-0.4,0.4-1,0.9-0.6,1.2c0.3,0.4,0.8-0.2,1.2-0.6c0.7-0.6,1.1-1,0.7-1.3
					S12.7,41.6,12.1,42.2z M13.1,43.1c-0.6,0.6-1.3,1.2-1.9,0.5s0-1.3,0.6-1.9c0.7-0.6,1.3-1.2,1.9-0.6
					C14.3,41.9,13.7,42.5,13.1,43.1z"/>
				<path id="Stroke-22" class="st4" d="M12.1,42.2c-0.4,0.4-1,0.9-0.6,1.2c0.3,0.4,0.8-0.2,1.2-0.6c0.7-0.6,1.1-1,0.7-1.3
					S12.7,41.6,12.1,42.2z M13.1,43.1c-0.6,0.6-1.3,1.2-1.9,0.5s0-1.3,0.6-1.9c0.7-0.6,1.3-1.2,1.9-0.6
					C14.3,41.9,13.7,42.5,13.1,43.1z"/>
				<path id="Fill-23" class="st3" d="M13.4,45.6L13,45.3l1.9-2.2L14.3,43l0.3-0.3c0.1,0,0.5,0.1,0.7,0.1l0.3,0.2L13.4,45.6"/>
				<path id="Stroke-24" class="st4" d="M13.4,45.6L13,45.3l1.9-2.2L14.3,43l0.3-0.3c0.1,0,0.5,0.1,0.7,0.1l0.3,0.2L13.4,45.6z"/>
				<path id="Fill-25" class="st0" d="M13.1,14L13.1,14c0.3,0.3,0.5,0.2,0.6,0.1c0.2-0.2,0.2-0.4,0-0.6c-0.4-0.4-1.1,0.4-1.6,0
					c-0.3-0.3-0.3-0.7,0-0.9c0.3-0.3,0.6-0.3,0.9,0l-0.2,0.2c-0.2-0.2-0.4-0.2-0.6,0c-0.1,0.1-0.2,0.3,0,0.5c0.4,0.4,1-0.5,1.6,0.1
					c0.4,0.3,0.2,0.7,0,1c-0.5,0.5-0.9,0.1-1,0L13.1,14"/>
				<path id="Stroke-26" class="st5" d="M13.1,14L13.1,14c0.3,0.3,0.5,0.2,0.6,0.1c0.2-0.2,0.2-0.4,0-0.6c-0.4-0.4-1.1,0.4-1.6,0
					c-0.3-0.3-0.3-0.7,0-0.9c0.3-0.3,0.6-0.3,0.9,0l-0.2,0.2c-0.2-0.2-0.4-0.2-0.6,0c-0.1,0.1-0.2,0.3,0,0.5c0.4,0.4,1-0.5,1.6,0.1
					c0.4,0.3,0.2,0.7,0,1c-0.5,0.5-0.9,0.1-1,0L13.1,14z"/>
				<polyline id="Fill-27" class="st0" points="14,10.9 14.2,10.7 14.7,12.3 15.3,12.9 15,13.1 14.5,12.4 13,11.8 13.3,11.5 
					14.4,12.1 14,10.9 				"/>
				<polygon id="Stroke-28" class="st5" points="14,10.9 14.2,10.7 14.7,12.3 15.3,12.9 15,13.1 14.5,12.4 13,11.8 13.3,11.5 
					14.4,12.1 				"/>
				<path id="Fill-29" class="st0" d="M15.8,11.6L15.8,11.6c0.2,0.3,0.4,0.3,0.6,0.2c0.2-0.1,0.3-0.3,0.1-0.6
					c-0.3-0.4-1.1,0.2-1.5-0.3c-0.2-0.3-0.1-0.7,0.2-0.9c0.3-0.2,0.7-0.2,0.9,0.2l-0.3,0.2c-0.1-0.2-0.3-0.3-0.5-0.1
					c-0.1,0.1-0.2,0.3-0.1,0.5c0.3,0.4,1.1-0.3,1.5,0.3c0.3,0.4,0.1,0.7-0.2,1c-0.6,0.4-0.9,0-1-0.2L15.8,11.6"/>
				<path id="Stroke-30" class="st5" d="M15.8,11.6L15.8,11.6c0.2,0.3,0.4,0.3,0.6,0.2c0.2-0.1,0.3-0.3,0.1-0.6
					c-0.3-0.4-1.1,0.2-1.5-0.3c-0.2-0.3-0.1-0.7,0.2-0.9c0.3-0.2,0.7-0.2,0.9,0.2l-0.3,0.2c-0.1-0.2-0.3-0.3-0.5-0.1
					c-0.1,0.1-0.2,0.3-0.1,0.5c0.3,0.4,1.1-0.3,1.5,0.3c0.3,0.4,0.1,0.7-0.2,1c-0.6,0.4-0.9,0-1-0.2L15.8,11.6z"/>
				<polyline id="Fill-31" class="st0" points="17.4,8.6 17.6,8.8 17,9.1 18.1,10.9 17.8,11.1 16.8,9.3 16.2,9.6 16.1,9.4 17.4,8.6 
									"/>
				<polygon id="Stroke-32" class="st5" points="17.4,8.6 17.6,8.8 17,9.1 18.1,10.9 17.8,11.1 16.8,9.3 16.2,9.6 16.1,9.4 				"/>
				<polyline id="Fill-33" class="st0" points="18.9,10.5 17.9,8.4 19,7.9 19.1,8.1 18.3,8.5 18.6,9.2 19.4,8.8 19.5,9 18.7,9.4 
					19,10.1 19.9,9.7 20,10 18.9,10.5 				"/>
				<polygon id="Stroke-34" class="st5" points="18.9,10.5 17.9,8.4 19,7.9 19.1,8.1 18.3,8.5 18.6,9.2 19.4,8.8 19.5,9 18.7,9.4 
					19,10.1 19.9,9.7 20,10 				"/>
				<polyline id="Fill-35" class="st0" points="20.6,9.7 20.4,9.8 19.6,7.6 20.1,7.4 21.3,9.1 21.3,9.1 21.2,7 21.7,6.9 22.4,9.1 
					22.1,9.2 21.5,7.2 21.5,7.2 21.5,9.4 21.2,9.5 20,7.7 20,7.7 20.6,9.7 				"/>
				<polygon id="Stroke-36" class="st5" points="20.6,9.7 20.4,9.8 19.6,7.6 20.1,7.4 21.3,9.1 21.3,9.1 21.2,7 21.7,6.9 22.4,9.1 
					22.1,9.2 21.5,7.2 21.5,7.2 21.5,9.4 21.2,9.5 20,7.7 20,7.7 				"/>
				<path id="Fill-37" class="st0" d="M24.4,7c0-0.1,0-0.3-0.1-0.3C24.2,6.6,24,6.6,24,6.6c-0.2,0-0.3,0.2-0.3,0.2
					c0,0-0.1,0.1,0,0.5L23.8,8c0.1,0.6,0.3,0.6,0.5,0.6c0.1,0,0.4-0.1,0.3-0.5l0.3,0c0.1,0.7-0.4,0.8-0.5,0.8
					c-0.3,0-0.7,0.1-0.9-0.8l-0.1-0.7c-0.1-0.7,0.2-0.9,0.6-1c0.5-0.1,0.7,0.1,0.7,0.6L24.4,7"/>
				<path id="Stroke-38" class="st5" d="M24.4,7c0-0.1,0-0.3-0.1-0.3C24.2,6.6,24,6.6,24,6.6c-0.2,0-0.3,0.2-0.3,0.2
					c0,0-0.1,0.1,0,0.5L23.8,8c0.1,0.6,0.3,0.6,0.5,0.6c0.1,0,0.4-0.1,0.3-0.5l0.3,0c0.1,0.7-0.4,0.8-0.5,0.8
					c-0.3,0-0.7,0.1-0.9-0.8l-0.1-0.7c-0.1-0.7,0.2-0.9,0.6-1c0.5-0.1,0.7,0.1,0.7,0.6L24.4,7z"/>
				<polyline id="Fill-39" class="st0" points="25.4,8.6 25.3,6.3 26.5,6.2 26.5,6.4 25.6,6.5 25.6,7.2 26.5,7.2 26.5,7.4 25.6,7.5 
					25.7,8.3 26.6,8.2 26.6,8.5 25.4,8.6 				"/>
				<polygon id="Stroke-40" class="st5" points="25.4,8.6 25.3,6.3 26.5,6.2 26.5,6.4 25.6,6.5 25.6,7.2 26.5,7.2 26.5,7.4 
					25.6,7.5 25.7,8.3 26.6,8.2 26.6,8.5 				"/>
				<path id="Fill-41" class="st0" d="M27.4,7.2l0.4,0c0.2,0,0.3-0.2,0.3-0.4c0-0.2-0.1-0.4-0.3-0.4l-0.5,0L27.4,7.2z M27.3,7.4
					l0,1.1l-0.3,0l0-2.3l0.8,0c0.4,0,0.6,0.3,0.6,0.6c0,0.3-0.2,0.5-0.4,0.5l0,0c0.3,0,0.4,0.1,0.4,0.6c0,0.1,0,0.5,0.1,0.6l-0.3,0
					C28,8.4,28.1,8,28,7.7c0-0.3-0.2-0.3-0.3-0.3L27.3,7.4z"/>
				<path id="Stroke-42" class="st5" d="M27.4,7.2l0.4,0c0.2,0,0.3-0.2,0.3-0.4c0-0.2-0.1-0.4-0.3-0.4l-0.5,0L27.4,7.2z M27.3,7.4
					l0,1.1l-0.3,0l0-2.3l0.8,0c0.4,0,0.6,0.3,0.6,0.6c0,0.3-0.2,0.5-0.4,0.5l0,0c0.3,0,0.4,0.1,0.4,0.6c0,0.1,0,0.5,0.1,0.6l-0.3,0
					C28,8.4,28.1,8,28,7.7c0-0.3-0.2-0.3-0.3-0.3L27.3,7.4z"/>
				<polyline id="Fill-43" class="st0" points="30.4,6.3 30.3,6.6 29.7,6.5 29.5,8.6 29.2,8.6 29.4,6.5 28.8,6.5 28.8,6.2 30.4,6.3 
									"/>
				<polygon id="Stroke-44" class="st5" points="30.4,6.3 30.3,6.6 29.7,6.5 29.5,8.6 29.2,8.6 29.4,6.5 28.8,6.5 28.8,6.2 				"/>
				<polyline id="Fill-45" class="st0" points="30.8,8.8 30.5,8.7 30.8,6.4 31.1,6.4 30.8,8.8 				"/>
				<polygon id="Stroke-46" class="st5" points="30.8,8.8 30.5,8.7 30.8,6.4 31.1,6.4 				"/>
				<polyline id="Fill-47" class="st0" points="31.3,8.8 31.8,6.5 32.9,6.8 32.9,7 32,6.8 31.9,7.6 32.7,7.7 32.6,8 31.8,7.8 
					31.6,8.9 31.3,8.8 				"/>
				<polygon id="Stroke-48" class="st5" points="31.3,8.8 31.8,6.5 32.9,6.8 32.9,7 32,6.8 31.9,7.6 32.7,7.7 32.6,8 31.8,7.8 
					31.6,8.9 				"/>
				<polyline id="Fill-49" class="st0" points="33.1,9.2 32.8,9.2 33.4,6.9 33.7,7 33.1,9.2 				"/>
				<polygon id="Stroke-50" class="st5" points="33.1,9.2 32.8,9.2 33.4,6.9 33.7,7 				"/>
				<path id="Fill-51" class="st0" d="M35.2,8.1c0-0.1,0.1-0.3,0-0.3c0-0.1-0.2-0.2-0.2-0.2c-0.2-0.1-0.4,0-0.4,0.1
					c0,0-0.1,0.1-0.2,0.4l-0.2,0.6c-0.2,0.5,0,0.7,0.2,0.7c0.1,0,0.4,0.1,0.5-0.3l0.3,0.1c-0.2,0.7-0.7,0.5-0.9,0.5
					c-0.3-0.1-0.7-0.3-0.4-1.1l0.2-0.6c0.2-0.6,0.6-0.7,1-0.6c0.4,0.1,0.5,0.4,0.4,0.9L35.2,8.1"/>
				<path id="Stroke-52" class="st5" d="M35.2,8.1c0-0.1,0.1-0.3,0-0.3c0-0.1-0.2-0.2-0.2-0.2c-0.2-0.1-0.4,0-0.4,0.1
					c0,0-0.1,0.1-0.2,0.4l-0.2,0.6c-0.2,0.5,0,0.7,0.2,0.7c0.1,0,0.4,0.1,0.5-0.3l0.3,0.1c-0.2,0.7-0.7,0.5-0.9,0.5
					c-0.3-0.1-0.7-0.3-0.4-1.1l0.2-0.6c0.2-0.6,0.6-0.7,1-0.6c0.4,0.1,0.5,0.4,0.4,0.9L35.2,8.1z"/>
				<path id="Fill-53" class="st0" d="M36.9,8.4L36.9,8.4l-0.9,1l0.7,0.3L36.9,8.4z M36.8,8.1l0.3,0.2l-0.3,2.4l-0.3-0.1l0.1-0.6
					l-0.8-0.4L35.4,10l-0.3-0.1L36.8,8.1z"/>
				<path id="Stroke-54" class="st5" d="M36.9,8.4L36.9,8.4l-0.9,1l0.7,0.3L36.9,8.4z M36.8,8.1l0.3,0.2l-0.3,2.4l-0.3-0.1l0.1-0.6
					l-0.8-0.4L35.4,10l-0.3-0.1L36.8,8.1z"/>
				<polyline id="Fill-55" class="st0" points="39.2,9.4 39.1,9.6 38.6,9.3 37.5,11.1 37.3,10.9 38.3,9.1 37.8,8.8 37.9,8.6 
					39.2,9.4 				"/>
				<polygon id="Stroke-56" class="st5" points="39.2,9.4 39.1,9.6 38.6,9.3 37.5,11.1 37.3,10.9 38.3,9.1 37.8,8.8 37.9,8.6 				
					"/>
				<polyline id="Fill-57" class="st0" points="38.6,11.8 38.3,11.6 39.7,9.7 39.9,9.8 38.6,11.8 				"/>
				<polygon id="Stroke-58" class="st5" points="38.6,11.8 38.3,11.6 39.7,9.7 39.9,9.8 				"/>
				<path id="Fill-59" class="st0" d="M40.5,12.2l0.5-0.6c0.3-0.4,0.1-0.6,0-0.7c-0.1-0.1-0.3-0.3-0.7,0.1l-0.5,0.6
					c-0.3,0.4-0.3,0.6-0.1,0.8S40.2,12.6,40.5,12.2z M39.6,11.4l0.5-0.6c0.3-0.4,0.7-0.4,1.1-0.1c0.4,0.3,0.4,0.7,0.1,1.1l-0.5,0.6
					c-0.4,0.5-0.8,0.5-1.1,0.2C39.2,12.3,39.2,11.9,39.6,11.4z"/>
				<path id="Stroke-60" class="st5" d="M40.5,12.2l0.5-0.6c0.3-0.4,0.1-0.6,0-0.7c-0.1-0.1-0.3-0.3-0.7,0.1l-0.5,0.6
					c-0.3,0.4-0.3,0.6-0.1,0.8S40.2,12.6,40.5,12.2z M39.6,11.4l0.5-0.6c0.3-0.4,0.7-0.4,1.1-0.1c0.4,0.3,0.4,0.7,0.1,1.1l-0.5,0.6
					c-0.4,0.5-0.8,0.5-1.1,0.2C39.2,12.3,39.2,11.9,39.6,11.4z"/>
				<polyline id="Fill-61" class="st0" points="43.4,12.9 41.7,14.5 41.4,14.2 42.2,12.2 42.2,12.2 40.8,13.6 40.6,13.4 42.3,11.7 
					42.6,12 41.7,14.1 41.7,14.1 43.2,12.7 43.4,12.9 				"/>
				<polygon id="Stroke-62" class="st5" points="43.4,12.9 41.7,14.5 41.4,14.2 42.2,12.2 42.2,12.2 40.8,13.6 40.6,13.4 42.3,11.7 
					42.6,12 41.7,14.1 41.7,14.1 43.2,12.7 				"/>
				<polygon id="Stroke-63" class="st6" points="58.6,50.6 93.8,50.6 93.8,5.3 58.6,5.3 				"/>
				<path id="Fill-64" class="st7" d="M72.1,10.9c0.2,0,0.4-0.2,0.4-0.4c0-0.2-0.2-0.4-0.4-0.4c-0.2,0-0.4,0.2-0.4,0.4
					C71.7,10.8,71.8,10.9,72.1,10.9"/>
				<path id="Fill-65" class="st7" d="M73.1,10.8c0.2,0,0.4-0.2,0.4-0.4s-0.2-0.4-0.4-0.4c-0.2,0-0.4,0.2-0.4,0.4
					S72.9,10.8,73.1,10.8"/>
				<path id="Fill-66" class="st7" d="M74.1,11.1c0.2,0,0.4-0.2,0.4-0.4c0-0.2-0.2-0.4-0.4-0.4c-0.2,0-0.4,0.2-0.4,0.4
					C73.7,11,73.8,11.1,74.1,11.1"/>
				<path id="Fill-67" class="st7" d="M75,11.4c0.2,0,0.4-0.2,0.4-0.4c0-0.2-0.2-0.4-0.4-0.4c-0.2,0-0.4,0.2-0.4,0.4
					C74.6,11.3,74.8,11.4,75,11.4"/>
				<path id="Fill-68" class="st7" d="M71.2,11.4c0.2,0,0.4-0.2,0.4-0.4c0-0.2-0.2-0.4-0.4-0.4c-0.2,0-0.4,0.2-0.4,0.4
					C70.8,11.2,71,11.4,71.2,11.4"/>
				<path id="Fill-69" class="st7" d="M70.5,12.1c0.2,0,0.4-0.2,0.4-0.4c0-0.2-0.2-0.4-0.4-0.4c-0.2,0-0.4,0.2-0.4,0.4
					C70.2,11.9,70.3,12.1,70.5,12.1"/>
				<path id="Fill-70" class="st7" d="M70.2,12.9c0.2,0,0.4-0.2,0.4-0.4s-0.2-0.4-0.4-0.4c-0.2,0-0.4,0.2-0.4,0.4S70,12.9,70.2,12.9
					"/>
				<path id="Fill-71" class="st7" d="M70.2,13.9c0.2,0,0.4-0.2,0.4-0.4s-0.2-0.4-0.4-0.4c-0.2,0-0.4,0.2-0.4,0.4
					S69.9,13.9,70.2,13.9"/>
				<path id="Fill-72" class="st7" d="M70.4,14.8c0.2,0,0.4-0.2,0.4-0.4c0-0.2-0.2-0.4-0.4-0.4c-0.2,0-0.4,0.2-0.4,0.4
					C70,14.6,70.2,14.8,70.4,14.8"/>
				<path id="Stroke-73" class="st8" d="M75.6,11.7c-1.4-0.1-1.6-0.7-2.8-0.7c-0.9,0-2.8,1.1-1.7,3.3"/>
				<path id="Fill-74" class="st7" d="M70.8,14.2l-0.5,0.8l1.1,2.7l-0.2,0.4l0.4,0.2l0.2,0.4c0,0,1.7-0.8,4.4-0.8V7.4h-0.5
					c0,0,0.3,0.3,0.3,0.7c0,0-0.3,0-0.6-0.2v0.9c0.2-0.2,0.6-0.2,0.6-0.2s0,0.6-0.2,0.8c-0.2,0.2-0.5,0.4-0.5,0.9
					c0,0.5,0.4,0.8,0.5,0.9l-0.3,0v2.6h-0.4v0.2c0,0,0.8,0.1,0.8,1c-0.7,0-0.9-0.8-0.9-0.8h-0.2v2.4H75c0,0,0.2-0.8,1-0.8
					c0,0-0.1,1-1.1,1c-0.8,0-1.1-0.7-1.1-0.8c0-0.1-0.1-0.4,0.1-0.4c0.2,0,0.3,0.1,0.1,0.4c0,0,0.7-0.1,0.6-0.7
					c-0.1-0.5-0.7-0.5-1-0.3c0,0-0.1-0.9-0.7-1.2l0,0c-0.4,0.5-0.1,1.3-0.1,1.3c-0.3-0.1-0.9,0.2-0.8,0.7c0.2,0.5,0.8,0.3,0.8,0.3
					c-0.3-0.2-0.2-0.4,0-0.4c0.2,0,0.3,0.2,0.3,0.3c0,0.1,0.1,0.7-0.6,1c0,0-0.8,0.3-1.2-0.7c0,0,0.4-0.2,0.8,0.6l0.1-0.1l-0.9-2.2
					l-0.2,0.1c0,0,0.3,0.9-0.1,1.1c0,0-0.3-0.8,0.2-1.4c0,0-0.1-0.1-0.2-0.4L70.8,14.2"/>
				<path id="Fill-75" class="st7" d="M80.5,10.9c-0.2,0-0.4-0.2-0.4-0.4c0-0.2,0.2-0.4,0.4-0.4c0.2,0,0.4,0.2,0.4,0.4
					C80.9,10.8,80.7,10.9,80.5,10.9"/>
				<path id="Fill-76" class="st7" d="M79.5,10.8c-0.2,0-0.4-0.2-0.4-0.4s0.2-0.4,0.4-0.4c0.2,0,0.4,0.2,0.4,0.4
					S79.7,10.8,79.5,10.8"/>
				<path id="Fill-77" class="st7" d="M78.5,11.1c-0.2,0-0.4-0.2-0.4-0.4c0-0.2,0.2-0.4,0.4-0.4c0.2,0,0.4,0.2,0.4,0.4
					C78.9,11,78.7,11.1,78.5,11.1"/>
				<path id="Fill-78" class="st7" d="M77.6,11.4c-0.2,0-0.4-0.2-0.4-0.4c0-0.2,0.2-0.4,0.4-0.4c0.2,0,0.4,0.2,0.4,0.4
					C78,11.3,77.8,11.4,77.6,11.4"/>
				<path id="Fill-79" class="st7" d="M81.4,11.4c-0.2,0-0.4-0.2-0.4-0.4c0-0.2,0.2-0.4,0.4-0.4c0.2,0,0.4,0.2,0.4,0.4
					C81.7,11.2,81.6,11.4,81.4,11.4"/>
				<path id="Fill-80" class="st7" d="M82,12.1c-0.2,0-0.4-0.2-0.4-0.4c0-0.2,0.2-0.4,0.4-0.4c0.2,0,0.4,0.2,0.4,0.4
					C82.4,11.9,82.3,12.1,82,12.1"/>
				<path id="Fill-81" class="st7" d="M82.4,12.9c-0.2,0-0.4-0.2-0.4-0.4s0.2-0.4,0.4-0.4c0.2,0,0.4,0.2,0.4,0.4
					S82.6,12.9,82.4,12.9"/>
				<path id="Fill-82" class="st7" d="M82.4,13.9c-0.2,0-0.4-0.2-0.4-0.4s0.2-0.4,0.4-0.4c0.2,0,0.4,0.2,0.4,0.4
					S82.6,13.9,82.4,13.9"/>
				<path id="Fill-83" class="st7" d="M82.2,14.8c-0.2,0-0.4-0.2-0.4-0.4c0-0.2,0.2-0.4,0.4-0.4c0.2,0,0.4,0.2,0.4,0.4
					C82.5,14.6,82.4,14.8,82.2,14.8"/>
				<path id="Stroke-84" class="st8" d="M77,11.7c1.4-0.1,1.6-0.7,2.8-0.7c0.9,0,2.8,1.1,1.7,3.3"/>
				<path id="Fill-85" class="st7" d="M81.8,14.2l0.5,0.8l-1.1,2.7l0.2,0.4l-0.4,0.2l-0.2,0.4c0,0-1.7-0.8-4.4-0.8V7.4h0.5
					c0,0-0.3,0.3-0.3,0.7c0,0,0.3,0,0.6-0.2v0.9c-0.2-0.2-0.6-0.2-0.6-0.2s0,0.6,0.2,0.8c0.2,0.2,0.5,0.4,0.5,0.9
					c0,0.5-0.4,0.8-0.5,0.9l0.3,0v2.6h0.4v0.2c0,0-0.8,0.1-0.9,1c0.7,0,0.9-0.8,0.9-0.8h0.2v2.4h-0.2c0,0-0.2-0.8-1-0.8
					c0,0,0.1,1,1.1,1c0.8,0,1.1-0.7,1.1-0.8c0-0.1,0.1-0.4-0.1-0.4c-0.2,0-0.3,0.1-0.1,0.4c0,0-0.7-0.1-0.6-0.7
					c0.1-0.5,0.7-0.5,1-0.3c0,0,0.1-0.9,0.7-1.2l0,0c0.4,0.5,0.1,1.3,0.1,1.3c0.3-0.1,0.9,0.2,0.8,0.7c-0.2,0.5-0.8,0.3-0.8,0.3
					c0.3-0.2,0.2-0.4,0-0.4c-0.2,0-0.3,0.2-0.3,0.3c0,0.1-0.1,0.7,0.6,1c0,0,0.8,0.3,1.2-0.7c0,0-0.4-0.2-0.8,0.6l-0.1-0.1l0.9-2.2
					l0.2,0.1c0,0-0.3,0.9,0.1,1.1c0,0,0.3-0.8-0.2-1.4c0,0,0.1-0.1,0.2-0.4L81.8,14.2"/>
				<polyline id="Fill-86" class="st0" points="71.9,18.3 72,18 71.7,17.8 71.5,18.2 71.9,18.3 				"/>
				<path id="Fill-87" class="st0" d="M74.2,17.8c0.2,0,0.3-0.1,0.3-0.2c0-0.1-0.1-0.2-0.2-0.2c-0.1,0-0.6,0.1-0.8,0.1
					c-0.1,0-0.2,0.1-0.2,0.2c0,0.1,0.1,0.3,0.2,0.2C73.6,17.9,74,17.8,74.2,17.8"/>
				<polyline id="Fill-88" class="st0" points="80.8,18.3 80.7,18 81,17.8 81.2,18.2 80.8,18.3 				"/>
				<path id="Fill-89" class="st0" d="M78.4,17.8c-0.2,0-0.3-0.1-0.3-0.2c0-0.1,0.1-0.2,0.2-0.2c0.1,0,0.6,0.1,0.8,0.1
					c0.1,0,0.2,0.1,0.2,0.2c0,0.1-0.1,0.3-0.2,0.2C79,17.9,78.6,17.8,78.4,17.8"/>
				<polyline id="Fill-90" class="st0" points="76.3,17.9 76.7,17.4 76.3,17 75.9,17.4 76.3,17.9 				"/>
				<path id="Fill-91" class="st0" d="M0,0"/>
				<path id="Fill-92" class="st0" d="M0,0"/>
				<path id="Fill-93" class="st0" d="M0,0"/>
				<path id="Fill-94" class="st0" d="M0,0"/>
				<path id="Fill-95" class="st0" d="M0,0"/>
				<polygon id="Fill-96" class="st0" points="75.8,13.7 75.9,13.7 75.9,11.1 75.8,11.1 				"/>
				<polygon id="Fill-97" class="st0" points="76.7,13.7 76.8,13.7 76.8,11.1 76.7,11.1 				"/>
				<path id="Fill-98" class="st0" d="M76.3,9.4h0.1V10c0,0,0.5,0.1,0.7,0.1v0.2c0,0-0.5-0.1-0.8-0.1h0c-0.3,0-0.8,0.1-0.8,0.1v-0.2
					c0.2-0.1,0.7-0.1,0.7-0.1V9.4H76.3"/>
				<path id="Fill-99" class="st9" d="M63.7,43.2c-0.1,0.6-0.1,1.2-0.2,1.7c-0.1,0-0.1,0-0.2,0c-0.1,0-0.1,0-0.2,0
					c0.2-0.9,0.3-1.8,0.4-2.6c0.1,0,0.1,0,0.2,0c0,0,0.1,0,0.2,0c0.3,0.6,0.6,1.3,0.9,1.8c0.3-0.6,0.6-1.2,0.9-1.8
					c0.1,0,0.1,0,0.2,0s0.1,0,0.2,0c0.1,0.9,0.2,2.1,0.3,2.6c-0.1,0-0.2,0-0.3,0s-0.2,0-0.3,0c0-0.5-0.1-1.2-0.2-1.8h0
					c-0.3,0.6-0.6,1.2-0.8,1.8c0,0,0,0-0.1,0s0,0-0.1,0C64.3,44.4,64,43.8,63.7,43.2L63.7,43.2"/>
				<path id="Fill-100" class="st9" d="M67.9,44c-0.1-0.3-0.2-0.6-0.3-0.9c-0.1,0.3-0.2,0.6-0.4,0.9H67.9z M68.9,45
					c-0.1,0-0.2,0-0.3,0s-0.2,0-0.3,0c-0.1-0.3-0.2-0.5-0.3-0.8c-0.2,0-0.3,0-0.5,0c-0.1,0-0.3,0-0.4,0c-0.1,0.3-0.2,0.5-0.3,0.8
					c-0.1,0-0.1,0-0.2,0c-0.1,0-0.1,0-0.2,0c0.2-0.4,0.8-1.8,1.1-2.7c0,0,0.1,0,0.1,0c0,0,0.1,0,0.1,0C68.2,43.2,68.6,44.4,68.9,45z
					"/>
				<path id="Fill-101" class="st9" d="M69.2,42.3c0.1,0,0.1,0,0.2,0c0.1,0,0.1,0,0.2,0c0.6,0.6,1.1,1.2,1.7,1.8c0-0.6,0-1.7,0-1.8
					c0.1,0,0.1,0,0.2,0c0.1,0,0.1,0,0.2,0c-0.1,1.1-0.1,1.6-0.1,2.6c-0.1,0-0.1,0-0.2,0s-0.1,0-0.1,0c-0.5-0.6-1.1-1.2-1.7-1.9
					c0,0.3,0,0.6,0,0.9c0,0.6,0,0.8,0,1c-0.1,0-0.1,0-0.2,0c-0.1,0-0.1,0-0.2,0c0-0.1,0.1-1.1,0.1-1.9
					C69.3,42.8,69.3,42.5,69.2,42.3"/>
				<path id="Fill-102" class="st9" d="M73.2,44c-0.1-0.3-0.2-0.6-0.3-0.9c-0.1,0.3-0.2,0.6-0.4,0.9H73.2z M74.2,45
					c-0.1,0-0.2,0-0.3,0s-0.2,0-0.3,0c-0.1-0.3-0.2-0.5-0.3-0.8c-0.2,0-0.3,0-0.5,0c-0.1,0-0.3,0-0.4,0c-0.1,0.3-0.2,0.5-0.3,0.8
					c-0.1,0-0.1,0-0.2,0c-0.1,0-0.1,0-0.2,0c0.2-0.4,0.8-1.8,1.1-2.7c0,0,0.1,0,0.1,0c0,0,0.1,0,0.1,0C73.5,43.2,74,44.4,74.2,45z"
					/>
				<path id="Fill-103" class="st9" d="M76.6,42.9c-0.2-0.2-0.4-0.4-0.8-0.4c-0.5,0-1,0.4-1,1.2c0,0.6,0.3,1.1,0.9,1.1
					c0.1,0,0.4,0,0.4-0.1c0-0.1,0-0.2,0-0.3c0-0.4,0-0.6,0-0.7c0,0,0.1,0,0.3,0c0.2,0,0.3,0,0.3,0c0,0.1,0,0.4,0,0.6
					c0,0.2,0,0.4,0,0.4c-0.3,0.1-0.7,0.2-1,0.2c-0.9,0-1.5-0.5-1.5-1.3c0-1,0.7-1.5,1.6-1.5c0.4,0,0.6,0.1,0.9,0.2
					C76.7,42.6,76.7,42.8,76.6,42.9L76.6,42.9"/>
				<path id="Fill-104" class="st9" d="M77.3,43.4c0-0.4,0-0.7,0-1.1c0.2,0,0.5,0,0.7,0c0.4,0,0.7,0,0.8,0c0,0,0,0.1,0,0.2
					c0,0.1,0,0.1,0,0.2c-0.3,0-0.8,0-0.9,0c0,0.3,0,0.6,0,0.8c0.3,0,0.6,0,0.9,0c0,0.1,0,0.1,0,0.2c0,0,0,0.1,0,0.2
					c-0.3,0-0.6,0-0.9,0c0,0.2,0,0.3,0,0.5c0,0.2,0,0.3,0,0.5c0.3,0,0.6,0,0.9,0c0,0.1,0,0.1,0,0.2c0,0.1,0,0.1,0,0.2
					c-0.1,0-0.3,0-0.7,0c-0.6,0-0.7,0-0.8,0c0-0.3,0-0.6,0-1.1V43.4"/>
				<path id="Fill-105" class="st9" d="M79.5,43.2c-0.1,0.6-0.1,1.2-0.2,1.7c-0.1,0-0.1,0-0.2,0c-0.1,0-0.1,0-0.2,0
					c0.2-0.9,0.3-1.8,0.4-2.6c0.1,0,0.1,0,0.2,0c0,0,0.1,0,0.2,0c0.3,0.6,0.6,1.3,0.9,1.8c0.3-0.6,0.6-1.2,0.9-1.8
					c0.1,0,0.1,0,0.2,0s0.1,0,0.2,0c0.1,0.9,0.2,2.1,0.3,2.6c-0.1,0-0.2,0-0.3,0c-0.1,0-0.2,0-0.3,0c0-0.5-0.1-1.2-0.2-1.8h0
					c-0.3,0.6-0.6,1.2-0.8,1.8c0,0,0,0-0.1,0c0,0,0,0-0.1,0C80,44.4,79.8,43.8,79.5,43.2L79.5,43.2"/>
				<path id="Fill-106" class="st9" d="M82.5,43.4c0-0.4,0-0.7,0-1.1c0.2,0,0.5,0,0.7,0c0.4,0,0.7,0,0.8,0c0,0,0,0.1,0,0.2
					c0,0.1,0,0.1,0,0.2c-0.3,0-0.8,0-0.9,0c0,0.3,0,0.6,0,0.8c0.3,0,0.6,0,0.9,0c0,0.1,0,0.1,0,0.2c0,0,0,0.1,0,0.2
					c-0.3,0-0.6,0-0.9,0c0,0.2,0,0.3,0,0.5c0,0.2,0,0.3,0,0.5c0.3,0,0.6,0,0.9,0c0,0.1,0,0.1,0,0.2c0,0.1,0,0.1,0,0.2
					c-0.1,0-0.3,0-0.7,0c-0.6,0-0.7,0-0.8,0c0-0.3,0-0.6,0-1.1V43.4"/>
				<path id="Fill-107" class="st9" d="M84.4,42.3c0.1,0,0.1,0,0.2,0c0.1,0,0.1,0,0.2,0c0.6,0.6,1.1,1.2,1.7,1.8c0-0.6,0-1.7,0-1.8
					c0.1,0,0.1,0,0.2,0c0.1,0,0.1,0,0.2,0c-0.1,1.1-0.1,1.6-0.1,2.6c-0.1,0-0.1,0-0.2,0s-0.1,0-0.1,0c-0.5-0.6-1.1-1.2-1.7-1.9
					c0,0.3,0,0.6,0,0.9c0,0.6,0,0.8,0,1c-0.1,0-0.1,0-0.2,0c-0.1,0-0.1,0-0.2,0c0-0.1,0.1-1.1,0.1-1.9
					C84.4,42.8,84.4,42.5,84.4,42.3"/>
				<path id="Fill-108" class="st9" d="M87.8,43c0-0.1,0-0.3,0-0.3c-0.1,0-0.5,0-0.7,0c0-0.1,0-0.1,0-0.2s0-0.1,0-0.2
					c0.3,0,0.5,0,1,0s0.6,0,1,0c0,0.1,0,0.1,0,0.2s0,0.1,0,0.2c-0.2,0-0.5,0-0.7,0c0,0.1,0,0.2,0,0.3v1c0,0.4,0,0.7,0,1.1
					c-0.1,0-0.2,0-0.3,0c-0.1,0-0.2,0-0.3,0c0-0.3,0-0.6,0-1.1V43"/>
				<path id="Fill-109" class="st9" d="M70.1,46.3C70,46.1,69.9,46,69.6,46c-0.2,0-0.4,0.2-0.4,0.3c0,0.6,1.2,0.4,1.2,1.3
					c0,0.5-0.4,0.9-1,0.9c-0.3,0-0.5-0.1-0.6-0.2c0-0.2,0.1-0.3,0.1-0.5H69c0,0.2,0.2,0.4,0.5,0.4c0.3,0,0.4-0.2,0.4-0.4
					c0-0.6-1.1-0.4-1.1-1.3c0-0.5,0.4-0.8,0.9-0.8c0.3,0,0.5,0.1,0.6,0.2C70.2,46.1,70.2,46.2,70.1,46.3L70.1,46.3"/>
				<path id="Fill-110" class="st9" d="M71.8,47c0.2-0.3,0.4-0.8,0.6-1.1c0.1,0,0.1,0,0.2,0c0.1,0,0.1,0,0.2,0
					c-0.2,0.3-0.6,1-0.8,1.5c0,0.1,0,0.2,0,0.4c0,0.3,0,0.5,0,0.8c-0.1,0-0.2,0-0.3,0c-0.1,0-0.2,0-0.3,0c0-0.2,0-0.5,0-0.7
					c0-0.1,0-0.2,0-0.4c-0.3-0.5-0.7-1.3-0.8-1.5c0.1,0,0.2,0,0.3,0s0.2,0,0.3,0C71.4,46.2,71.7,46.8,71.8,47L71.8,47"/>
				<path id="Fill-111" class="st9" d="M74.2,46.3C74.2,46.1,74,46,73.8,46c-0.2,0-0.4,0.2-0.4,0.3c0,0.6,1.2,0.4,1.2,1.3
					c0,0.5-0.4,0.9-1,0.9c-0.3,0-0.5-0.1-0.6-0.2c0-0.2,0.1-0.3,0.1-0.5h0.1c0,0.2,0.2,0.4,0.5,0.4c0.3,0,0.4-0.2,0.4-0.4
					c0-0.6-1.1-0.4-1.1-1.3c0-0.5,0.4-0.8,0.9-0.8c0.3,0,0.5,0.1,0.6,0.2C74.4,46.1,74.3,46.2,74.2,46.3L74.2,46.3"/>
				<path id="Fill-112" class="st9" d="M75.4,46.4c0-0.1,0-0.3,0-0.3c-0.1,0-0.5,0-0.7,0c0-0.1,0-0.1,0-0.2c0-0.1,0-0.1,0-0.2
					c0.3,0,0.5,0,1,0s0.6,0,1,0c0,0.1,0,0.1,0,0.2c0,0.1,0,0.1,0,0.2c-0.2,0-0.5,0-0.7,0c0,0.1,0,0.2,0,0.3v1c0,0.4,0,0.7,0,1.1
					c-0.1,0-0.2,0-0.3,0c-0.1,0-0.2,0-0.3,0c0-0.3,0-0.6,0-1.1V46.4"/>
				<path id="Fill-113" class="st9" d="M77,46.9c0-0.4,0-0.7,0-1.1c0.2,0,0.5,0,0.7,0c0.4,0,0.7,0,0.8,0c0,0,0,0.1,0,0.2
					c0,0.1,0,0.1,0,0.2c-0.3,0-0.8,0-0.9,0c0,0.3,0,0.6,0,0.8c0.3,0,0.6,0,0.9,0c0,0.1,0,0.1,0,0.2c0,0,0,0.1,0,0.2
					c-0.3,0-0.6,0-0.9,0c0,0.2,0,0.3,0,0.5c0,0.2,0,0.3,0,0.5c0.3,0,0.6,0,0.9,0c0,0.1,0,0.1,0,0.2s0,0.1,0,0.2c-0.1,0-0.3,0-0.7,0
					c-0.6,0-0.7,0-0.8,0c0-0.3,0-0.6,0-1.1V46.9"/>
				<path id="Fill-114" class="st9" d="M79.2,46.7c-0.1,0.6-0.1,1.2-0.2,1.7c-0.1,0-0.1,0-0.2,0c-0.1,0-0.1,0-0.2,0
					c0.2-0.9,0.3-1.8,0.4-2.6c0.1,0,0.1,0,0.2,0c0,0,0.1,0,0.2,0c0.3,0.6,0.6,1.3,0.9,1.8c0.3-0.6,0.6-1.2,0.9-1.8
					c0.1,0,0.1,0,0.2,0s0.1,0,0.2,0c0.1,0.9,0.2,2.1,0.3,2.6c-0.1,0-0.2,0-0.3,0c-0.1,0-0.2,0-0.3,0c0-0.5-0.1-1.2-0.2-1.8h0
					c-0.3,0.6-0.6,1.2-0.8,1.8c0,0,0,0-0.1,0c0,0,0,0-0.1,0C79.8,47.9,79.5,47.3,79.2,46.7L79.2,46.7"/>
				<path id="Fill-115" class="st9" d="M83.4,46.3c-0.1-0.2-0.2-0.3-0.5-0.3c-0.2,0-0.4,0.2-0.4,0.3c0,0.6,1.2,0.4,1.2,1.3
					c0,0.5-0.4,0.9-1,0.9c-0.3,0-0.5-0.1-0.6-0.2c0-0.2,0.1-0.3,0.1-0.5h0.1c0,0.2,0.2,0.4,0.5,0.4c0.3,0,0.4-0.2,0.4-0.4
					c0-0.6-1.1-0.4-1.1-1.3c0-0.5,0.4-0.8,0.9-0.8c0.3,0,0.5,0.1,0.6,0.2C83.5,46.1,83.5,46.2,83.4,46.3L83.4,46.3"/>
				<path id="Fill-116" class="st9" d="M65.6,39.1c0-0.8,0-1.1,0-1.6c0-0.7,0-1.2,0-1.5c0.2,0,0.4,0,0.6,0c0.2,0,0.4,0,0.6,0
					c-0.1,0.9-0.1,1.6-0.1,2.5c0,1.7,0.5,2,1.4,2c1.1,0,1.2-1.2,1.2-2.5c0-0.6,0-1.3-0.1-1.9c0.1,0,0.2,0,0.4,0s0.2,0,0.4,0
					c0,0.4-0.1,1.4-0.1,2.6c0,1.6-0.7,2.3-2.1,2.3C66.6,40.9,65.6,40.4,65.6,39.1"/>
				<path id="Fill-117" class="st9" d="M73.5,38.6c0,1,0,1.8,0.1,2.2c-0.2,0-0.3,0-0.6,0c-0.2,0-0.4,0-0.6,0c0-0.6,0.1-1.2,0.1-2v-1
					c0-0.8,0-1.3-0.1-2c0.2,0,0.3,0,0.6,0c0.2,0,0.4,0,0.6,0c-0.1,0.4-0.1,1.3-0.1,2.2c0.6-0.7,1.5-1.9,1.8-2.2c0.1,0,0.3,0,0.4,0
					c0.1,0,0.3,0,0.4,0c-0.3,0.3-1.5,1.6-1.8,2c0.6,0.9,1.5,2.3,1.9,2.8c-0.3,0-0.5,0-0.7,0c-0.2,0-0.4,0-0.6,0
					C74.4,40.1,73.9,39.3,73.5,38.6L73.5,38.6"/>
				<path id="Fill-118" class="st9" d="M80.3,39c-0.2-0.6-0.4-1.1-0.6-1.7c-0.2,0.5-0.5,1.1-0.7,1.7H80.3z M82.1,40.8
					c-0.2,0-0.4,0-0.6,0c-0.2,0-0.4,0-0.6,0c-0.1-0.5-0.3-1-0.5-1.4c-0.3,0-0.6,0-0.9,0c-0.2,0-0.5,0-0.7,0c-0.2,0.5-0.3,1-0.5,1.4
					c-0.1,0-0.2,0-0.3,0c-0.1,0-0.2,0-0.4,0c0.3-0.8,1.4-3.3,2-4.9c0.1,0,0.2,0,0.3,0c0.1,0,0.2,0,0.3,0
					C80.8,37.5,81.6,39.7,82.1,40.8z"/>
				<path id="Fill-119" class="st9" d="M86.3,36.9c-0.1-0.4-0.4-0.6-0.9-0.6c-0.4,0-0.7,0.3-0.7,0.6c0,1,2.1,0.8,2.1,2.4
					c0,0.9-0.7,1.6-1.9,1.6c-0.5,0-0.9-0.1-1.1-0.3c0.1-0.3,0.2-0.6,0.2-0.9h0.1c0.1,0.4,0.4,0.8,1,0.8c0.5,0,0.8-0.3,0.8-0.7
					c0-1.1-2.1-0.8-2.1-2.4c0-1,0.7-1.5,1.6-1.5c0.5,0,0.9,0.1,1.2,0.3c-0.1,0.2-0.1,0.4-0.2,0.7H86.3"/>
				<polyline id="Fill-120" class="st9" points="70.6,21.8 70.6,29.1 75.5,34.4 85.2,20 85.2,14.5 75.6,28.3 70.6,21.8 				"/>
				<path id="Fill-121" class="st7" d="M74.6,55.5c1,0,1.3-1.1,1.3-1.8c0-0.7-0.3-1.8-1.3-1.8c-1,0-1.3,1.1-1.3,1.8
					C73.3,54.4,73.6,55.5,74.6,55.5z M74.6,52.3c0.7,0,0.9,1,0.9,1.4c0,0.5-0.2,1.4-0.9,1.4c-0.7,0-0.9-0.9-0.9-1.4
					C73.7,53.2,73.9,52.3,74.6,52.3z"/>
				<path id="Fill-122" class="st7" d="M71.3,55.5c1,0,1.3-1.1,1.3-1.8c0-0.7-0.3-1.8-1.3-1.8c-1,0-1.3,1.1-1.3,1.8
					C70,54.4,70.3,55.5,71.3,55.5z M71.3,52.3c0.7,0,0.9,1,0.9,1.4c0,0.5-0.2,1.4-0.9,1.4c-0.7,0-0.9-0.9-0.9-1.4
					C70.4,53.2,70.6,52.3,71.3,52.3z"/>
				<path id="Fill-123" class="st7" d="M77.9,55.5c1,0,1.3-1.1,1.3-1.8c0-0.7-0.3-1.8-1.3-1.8c-1,0-1.3,1.1-1.3,1.8
					C76.6,54.4,76.9,55.5,77.9,55.5z M77.9,52.3c0.7,0,0.9,1,0.9,1.4c0,0.5-0.2,1.4-0.9,1.4c-0.7,0-0.9-0.9-0.9-1.4
					C77,53.2,77.2,52.3,77.9,52.3z"/>
				<path id="Fill-124" class="st7" d="M80.6,54.6c0,0.4,0.3,0.5,0.6,0.5c0.6,0,0.7-0.6,0.7-0.8c0-0.5-0.3-0.8-0.7-0.8
					c-0.2,0-0.4,0.1-0.5,0.2c-0.1,0.1-0.1,0.2-0.2,0.3h-0.5l0.1-2.1h2.1v0.4h-1.6l-0.1,1.1c0.1-0.1,0.3-0.3,0.8-0.3
					c0.7,0,1.1,0.6,1.1,1.2c0,0.7-0.5,1.2-1.3,1.2c-0.6,0-1.1-0.3-1.1-0.9H80.6"/>
			</g>
		</g>
	</g>
</g>
</svg>
